<svg width="22" height="17" viewBox="0 0 22 17" fill="none" xmlns="http://www.w3.org/2000/svg">
<path d="M3.81055 16.7666H18.3916C20.0879 16.7666 21.0723 15.7822 21.0723 13.9014V4.85742C21.0723 2.97656 20.0791 1.99219 18.1807 1.99219H10.0332C9.40039 1.99219 9.02246 1.85156 8.53027 1.44727L8.03809 1.04297C7.41406 0.533203 6.95703 0.366211 6.03418 0.366211H3.54688C1.89453 0.366211 0.918945 1.33301 0.918945 3.1875V13.9014C0.918945 15.791 1.91211 16.7666 3.81055 16.7666ZM2.66797 3.33691C2.66797 2.53711 3.11621 2.11523 3.89844 2.11523H5.56836C6.19238 2.11523 6.56152 2.26465 7.0625 2.66895L7.55469 3.08203C8.16992 3.57422 8.64453 3.75 9.56738 3.75H18.0664C18.875 3.75 19.3232 4.17188 19.3232 5.01562V5.53418H2.66797V3.33691ZM3.9248 15.0176C3.11621 15.0176 2.66797 14.5957 2.66797 13.7432V7.07227H19.3232V13.752C19.3232 14.5957 18.875 15.0176 18.0664 15.0176H3.9248Z" fill="black"/>
</svg>
