<svg width="114" height="19" viewBox="0 0 114 19" fill="none" xmlns="http://www.w3.org/2000/svg">
<path d="M5.64893 6.45664C6.52614 6.45664 7.16136 6.29223 7.55459 5.96342C7.96295 5.63461 8.16712 5.23107 8.16712 4.7528V4.59587C8.16712 4.02793 7.97051 3.57955 7.57728 3.25074C7.19917 2.90698 6.65469 2.7351 5.94385 2.7351C5.29351 2.7351 4.68097 2.89951 4.10625 3.22832C3.54665 3.54218 3.07023 3.99803 2.677 4.59587L0.521788 2.62301C0.824275 2.23442 1.15701 1.88319 1.51999 1.56932C1.88298 1.24051 2.28377 0.964011 2.72237 0.739823C3.16098 0.500688 3.65252 0.321338 4.19699 0.20177C4.75659 0.0672566 5.38425 0 6.07997 0C6.94206 0 7.72096 0.0971485 8.41668 0.291446C9.11239 0.485743 9.70224 0.769715 10.1862 1.14336C10.6853 1.50206 11.071 1.9355 11.3432 2.44366C11.6155 2.95182 11.7516 3.51976 11.7516 4.14749C11.7516 4.64071 11.6684 5.08909 11.502 5.49262C11.3357 5.89616 11.1088 6.24739 10.8214 6.54631C10.5492 6.84523 10.224 7.09184 9.84592 7.28614C9.48294 7.46549 9.08971 7.59253 8.66623 7.66726V7.80177C9.63418 7.96618 10.4358 8.36971 11.071 9.01239C11.7213 9.64012 12.0465 10.492 12.0465 11.5681C12.0465 12.2706 11.8953 12.9058 11.5928 13.4737C11.3054 14.0417 10.8895 14.5274 10.345 14.931C9.81567 15.3345 9.16533 15.6484 8.39399 15.8726C7.63777 16.0818 6.79081 16.1864 5.85311 16.1864C5.05152 16.1864 4.34068 16.1042 3.72058 15.9398C3.11561 15.7754 2.57869 15.5587 2.10984 15.2897C1.64099 15.0057 1.23263 14.6844 0.884772 14.3257C0.552037 13.952 0.257113 13.5709 0 13.1823L2.5182 11.2543C2.86606 11.897 3.2971 12.4275 3.81132 12.846C4.34068 13.2496 5.04396 13.4513 5.92117 13.4513C6.73788 13.4513 7.36554 13.2645 7.80414 12.8909C8.24275 12.5172 8.46205 12.0016 8.46205 11.344V11.187C8.46205 10.5443 8.2125 10.0661 7.7134 9.75221C7.21429 9.4234 6.51858 9.259 5.62624 9.259H4.15162V6.45664H5.64893Z" fill="black"/>
<path d="M15.849 15.9174L20.2275 10.0437L16.1439 4.34926H19.9779L21.2257 6.21003L22.1785 7.71209H22.36L23.3355 6.21003L24.6059 4.34926H28.1223L24.0388 9.86431L28.4173 15.9174H24.5606L23.0859 13.7428L22.0651 12.1959H21.8836L20.8854 13.7428L19.3881 15.9174H15.849Z" fill="black"/>
<path d="M38.8895 15.9174V12.9133H31.766V10.0437L38.0728 0.269027H42.1564V10.3127H44.1982V12.9133H42.1564V15.9174H38.8895ZM34.5111 10.3127H38.8895V3.74395H38.6854L34.5111 10.3127Z" fill="black"/>
<path d="M55.6227 15.9174V4.34926H58.3224V6.0531H58.4812C58.6627 5.51504 58.9198 5.05172 59.2526 4.66313C59.6004 4.27453 60.0844 4.08024 60.7045 4.08024C61.8388 4.08024 62.5345 4.73786 62.7917 6.0531H62.9278C63.0185 5.78407 63.132 5.52999 63.2681 5.29085C63.4042 5.05172 63.5706 4.84248 63.7672 4.66313C63.9638 4.48378 64.1982 4.34179 64.4705 4.23717C64.7427 4.13255 65.0603 4.08024 65.4233 4.08024C67.0567 4.08024 67.8734 5.26844 67.8734 7.64484V15.9174H65.1737V7.98112C65.1737 7.44307 65.0754 7.06942 64.8788 6.86018C64.6973 6.63599 64.4553 6.52389 64.1529 6.52389C63.8655 6.52389 63.6159 6.62104 63.4042 6.81534C63.2076 6.99469 63.1093 7.27866 63.1093 7.66726V15.9174H60.3869V7.98112C60.3869 7.44307 60.2962 7.06942 60.1147 6.86018C59.9483 6.63599 59.7139 6.52389 59.4114 6.52389C59.1089 6.52389 58.8518 6.62104 58.6401 6.81534C58.4283 6.99469 58.3224 7.27866 58.3224 7.66726V15.9174H55.6227Z" fill="black"/>
<path d="M80.4811 15.9174C79.8723 15.9174 79.3827 15.767 79.0121 15.4662C78.6416 15.1524 78.4232 14.7077 78.3571 14.1323H78.2578C78.0725 14.7993 77.702 15.3028 77.1462 15.6428C76.6036 15.9828 75.9353 16.1528 75.1413 16.1528C74.1487 16.1528 73.3481 15.8912 72.7393 15.3681C72.1438 14.832 71.846 14.0865 71.846 13.1319C71.846 12.0726 72.2364 11.2879 73.0172 10.7779C73.798 10.2678 74.9427 10.0128 76.4514 10.0128H78.099V9.5028C78.099 8.90123 77.9534 8.45005 77.6623 8.14926C77.3844 7.8354 76.908 7.67847 76.233 7.67847C75.611 7.67847 75.1082 7.79616 74.7244 8.03156C74.3406 8.26696 74.0098 8.57429 73.7318 8.95354L72.124 7.54115C72.468 6.96573 73.004 6.49494 73.7318 6.12876C74.4729 5.74951 75.4192 5.55988 76.5705 5.55988C77.9733 5.55988 79.0651 5.88029 79.8459 6.52109C80.6399 7.14882 81.0369 8.10349 81.0369 9.3851V13.8184H82.1684V15.9174H80.4811ZM76.2529 14.25C76.769 14.25 77.2057 14.1258 77.563 13.8773C77.9203 13.6288 78.099 13.2692 78.099 12.7984V11.5822H76.5308C75.3265 11.5822 74.7244 11.981 74.7244 12.7788V13.1711C74.7244 13.5242 74.8633 13.7923 75.1413 13.9754C75.4192 14.1585 75.7897 14.25 76.2529 14.25Z" fill="black"/>
<path d="M92.4082 7.96431H94.7633L90.9733 17.1967C90.7341 17.7824 90.417 18.2294 90.0219 18.5376C89.6267 18.8459 89.086 19 88.3998 19H86.8089V17.2275H88.7429L89.242 15.8712L85.9978 7.96431H88.4778L89.6475 11.3089L90.3806 13.6209H90.5054L91.2072 11.3089L92.4082 7.96431Z" fill="black"/>
<path d="M99.3662 6.58555H101.255V10.5957H101.344C101.506 10.209 101.74 9.88953 102.046 9.63731C102.352 9.3851 102.769 9.259 103.297 9.259C103.662 9.259 103.994 9.32625 104.292 9.46077C104.598 9.59528 104.858 9.80125 105.07 10.0787C105.292 10.3561 105.462 10.7092 105.581 11.138C105.708 11.5667 105.772 12.0754 105.772 12.6639C105.772 13.2524 105.708 13.761 105.581 14.1897C105.462 14.6185 105.292 14.9716 105.07 15.249C104.858 15.5265 104.598 15.7324 104.292 15.867C103.994 16.0015 103.662 16.0687 103.297 16.0687C102.769 16.0687 102.352 15.9468 102.046 15.703C101.74 15.4508 101.506 15.1271 101.344 14.732H101.255V15.9174H99.3662V6.58555ZM102.48 14.6185C102.905 14.6185 103.233 14.4924 103.462 14.2402C103.692 13.9796 103.807 13.6223 103.807 13.1683V12.1594C103.807 11.7055 103.692 11.3524 103.462 11.1001C103.233 10.8395 102.905 10.7092 102.48 10.7092C102.148 10.7092 101.859 10.7891 101.612 10.9488C101.374 11.1086 101.255 11.3608 101.255 11.7055V13.6223C101.255 13.967 101.374 14.2192 101.612 14.3789C101.859 14.5386 102.148 14.6185 102.48 14.6185Z" fill="black"/>
<path d="M111.658 16.0351C110.797 16.0351 110.146 15.7997 109.702 15.3289C109.259 14.8581 109.037 14.2173 109.037 13.4065C109.037 12.9945 109.094 12.6251 109.206 12.2982C109.325 11.9647 109.491 11.6835 109.702 11.4546C109.921 11.2192 110.182 11.0427 110.486 10.925C110.797 10.8008 111.145 10.7386 111.529 10.7386C111.912 10.7386 112.256 10.8008 112.561 10.925C112.865 11.0427 113.123 11.2127 113.335 11.435C113.547 11.6573 113.709 11.9287 113.821 12.2491C113.94 12.563 114 12.9161 114 13.3084V13.74H110.496V13.8282C110.496 14.1552 110.599 14.42 110.804 14.6227C111.009 14.8189 111.31 14.917 111.707 14.917C112.012 14.917 112.273 14.8614 112.491 14.7502C112.71 14.6325 112.898 14.4789 113.057 14.2892L113.851 15.1426C113.653 15.3845 113.375 15.5937 113.017 15.7703C112.66 15.9468 112.207 16.0351 111.658 16.0351ZM111.539 11.7783C111.221 11.7783 110.966 11.8764 110.774 12.0726C110.589 12.2622 110.496 12.5205 110.496 12.8474V12.9259H112.561V12.8474C112.561 12.5139 112.468 12.2524 112.283 12.0628C112.104 11.8731 111.856 11.7783 111.539 11.7783Z" fill="black"/>
</svg>
