<svg width="153" height="16" viewBox="0 0 153 16" fill="none" xmlns="http://www.w3.org/2000/svg">
<path d="M4.768 12C3.91467 12 3.28 11.776 2.864 11.328C2.448 10.88 2.24 10.3093 2.24 9.61597V5.58397H0V3.74397H1.456C1.808 3.74397 2.05867 3.67464 2.208 3.53597C2.35733 3.39731 2.432 3.14131 2.432 2.76797V0.831973H4.608V3.74397H7.824V5.58397H4.608V10.16H7.824V12H4.768Z" fill="black"/>
<path d="M9.96175 0.159973H12.3298V5.24797H12.4257C12.5217 5.01331 12.6391 4.79464 12.7778 4.59197C12.9164 4.38931 13.0817 4.21331 13.2738 4.06397C13.4764 3.90397 13.7058 3.78131 13.9618 3.69597C14.2284 3.59997 14.5271 3.55197 14.8578 3.55197C15.2524 3.55197 15.6151 3.62131 15.9458 3.75997C16.2764 3.88797 16.5591 4.08531 16.7937 4.35197C17.0284 4.61864 17.2097 4.94397 17.3377 5.32797C17.4764 5.71197 17.5457 6.15464 17.5457 6.65597V12H15.1778V6.97597C15.1778 5.90931 14.7138 5.37597 13.7858 5.37597C13.6044 5.37597 13.4231 5.40264 13.2417 5.45597C13.0711 5.49864 12.9164 5.57331 12.7778 5.67997C12.6391 5.77597 12.5271 5.89864 12.4418 6.04797C12.3671 6.19731 12.3298 6.37331 12.3298 6.57597V12H9.96175V0.159973Z" fill="black"/>
<path d="M19.6995 10.16H21.6035V5.58397H19.6995V3.74397H23.9715V6.07997H24.0835C24.1582 5.78131 24.2595 5.49331 24.3875 5.21597C24.5262 4.92797 24.6968 4.67731 24.8995 4.46397C25.1128 4.23997 25.3688 4.06397 25.6675 3.93597C25.9662 3.80797 26.3182 3.74397 26.7235 3.74397H27.5075V5.91997H25.7475C25.1608 5.91997 24.7182 6.09597 24.4195 6.44797C24.1208 6.78931 23.9715 7.21064 23.9715 7.71197V10.16H26.6915V12H19.6995V10.16Z" fill="black"/>
<path d="M33.1333 12.192C31.7466 12.192 30.6959 11.808 29.9812 11.04C29.2666 10.272 28.9092 9.22664 28.9092 7.90397C28.9092 7.23197 28.9999 6.62931 29.1812 6.09597C29.3732 5.55197 29.6399 5.09331 29.9812 4.71997C30.3332 4.33597 30.7546 4.04797 31.2452 3.85597C31.7466 3.65331 32.3066 3.55197 32.9253 3.55197C33.5439 3.55197 34.0986 3.65331 34.5892 3.85597C35.0799 4.04797 35.4959 4.32531 35.8372 4.68797C36.1786 5.05064 36.4399 5.49331 36.6213 6.01597C36.8133 6.52797 36.9092 7.10397 36.9092 7.74397V8.44797H31.2612V8.59197C31.2612 9.12531 31.4266 9.55731 31.7572 9.88797C32.0879 10.208 32.5732 10.368 33.2132 10.368C33.7039 10.368 34.1252 10.2773 34.4772 10.096C34.8293 9.90397 35.1332 9.65331 35.3892 9.34397L36.6693 10.736C36.3493 11.1306 35.9012 11.472 35.3252 11.76C34.7492 12.048 34.0186 12.192 33.1333 12.192ZM32.9412 5.24797C32.4292 5.24797 32.0186 5.40797 31.7092 5.72797C31.4106 6.03731 31.2612 6.45864 31.2612 6.99197V7.11997H34.5892V6.99197C34.5892 6.44797 34.4399 6.02131 34.1413 5.71197C33.8533 5.40264 33.4533 5.24797 32.9412 5.24797Z" fill="black"/>
<path d="M42.727 12.192C41.3403 12.192 40.2897 11.808 39.575 11.04C38.8603 10.272 38.503 9.22664 38.503 7.90397C38.503 7.23197 38.5937 6.62931 38.775 6.09597C38.967 5.55197 39.2337 5.09331 39.575 4.71997C39.927 4.33597 40.3483 4.04797 40.839 3.85597C41.3403 3.65331 41.9003 3.55197 42.519 3.55197C43.1377 3.55197 43.6923 3.65331 44.183 3.85597C44.6737 4.04797 45.0897 4.32531 45.431 4.68797C45.7723 5.05064 46.0337 5.49331 46.215 6.01597C46.407 6.52797 46.503 7.10397 46.503 7.74397V8.44797H40.855V8.59197C40.855 9.12531 41.0203 9.55731 41.351 9.88797C41.6817 10.208 42.167 10.368 42.807 10.368C43.2977 10.368 43.719 10.2773 44.071 10.096C44.423 9.90397 44.727 9.65331 44.983 9.34397L46.263 10.736C45.943 11.1306 45.495 11.472 44.919 11.76C44.343 12.048 43.6123 12.192 42.727 12.192ZM42.535 5.24797C42.023 5.24797 41.6123 5.40797 41.303 5.72797C41.0043 6.03731 40.855 6.45864 40.855 6.99197V7.11997H44.183V6.99197C44.183 6.44797 44.0337 6.02131 43.735 5.71197C43.447 5.40264 43.047 5.24797 42.535 5.24797Z" fill="black"/>
<path d="M48.2567 15.072V13.136H55.9367V15.072H48.2567Z" fill="black"/>
<path d="M58.0265 10.16H60.4585V5.58397H57.8665V3.74397H60.4585V2.54397C60.4585 1.83997 60.6612 1.26931 61.0665 0.831973C61.4825 0.383973 62.1225 0.159973 62.9865 0.159973H65.7865V1.99997H62.8265V3.74397H65.7865V5.58397H62.8265V10.16H65.4185V12H58.0265V10.16Z" fill="black"/>
<path d="M71.2843 12.192C70.6443 12.192 70.0683 12.096 69.5563 11.904C69.0443 11.7013 68.6069 11.4133 68.2443 11.04C67.8923 10.6666 67.6203 10.2133 67.4283 9.67997C67.2363 9.14664 67.1403 8.54397 67.1403 7.87197C67.1403 7.19997 67.2363 6.59731 67.4283 6.06397C67.6203 5.53064 67.8923 5.07731 68.2443 4.70397C68.6069 4.33064 69.0443 4.04797 69.5563 3.85597C70.0683 3.65331 70.6443 3.55197 71.2843 3.55197C71.9243 3.55197 72.5003 3.65331 73.0123 3.85597C73.5243 4.04797 73.9563 4.33064 74.3083 4.70397C74.6709 5.07731 74.9482 5.53064 75.1403 6.06397C75.3323 6.59731 75.4283 7.19997 75.4283 7.87197C75.4283 8.54397 75.3323 9.14664 75.1403 9.67997C74.9482 10.2133 74.6709 10.6666 74.3083 11.04C73.9563 11.4133 73.5243 11.7013 73.0123 11.904C72.5003 12.096 71.9243 12.192 71.2843 12.192ZM71.2843 10.432C71.8176 10.432 72.2336 10.2666 72.5323 9.93597C72.8309 9.60531 72.9803 9.13597 72.9803 8.52797V7.21597C72.9803 6.60797 72.8309 6.13864 72.5323 5.80797C72.2336 5.47731 71.8176 5.31197 71.2843 5.31197C70.7509 5.31197 70.3349 5.47731 70.0363 5.80797C69.7376 6.13864 69.5883 6.60797 69.5883 7.21597V8.52797C69.5883 9.13597 69.7376 9.60531 70.0363 9.93597C70.3349 10.2666 70.7509 10.432 71.2843 10.432Z" fill="black"/>
<path d="M82.27 10.496H82.174C81.9927 10.9653 81.7047 11.3653 81.31 11.696C80.926 12.0266 80.4033 12.192 79.742 12.192C79.3473 12.192 78.9847 12.128 78.654 12C78.3233 11.8613 78.0407 11.6586 77.806 11.392C77.5713 11.1253 77.3847 10.8 77.246 10.416C77.118 10.032 77.054 9.58931 77.054 9.08797V3.74397H79.422V8.76797C79.422 9.83464 79.886 10.368 80.814 10.368C80.9953 10.368 81.1713 10.3466 81.342 10.304C81.5233 10.2506 81.678 10.176 81.806 10.08C81.9447 9.97331 82.0567 9.84531 82.142 9.69597C82.2273 9.54664 82.27 9.37064 82.27 9.16797V3.74397H84.638V12H82.27V10.496Z" fill="black"/>
<path d="M86.8558 10.16H88.7598V5.58397H86.8558V3.74397H91.1278V6.07997H91.2398C91.3144 5.78131 91.4158 5.49331 91.5438 5.21597C91.6824 4.92797 91.8531 4.67731 92.0558 4.46397C92.2691 4.23997 92.5251 4.06397 92.8238 3.93597C93.1224 3.80797 93.4744 3.74397 93.8798 3.74397H94.6638V5.91997H92.9038C92.3171 5.91997 91.8744 6.09597 91.5758 6.44797C91.2771 6.78931 91.1278 7.21064 91.1278 7.71197V10.16H93.8478V12H86.8558V10.16Z" fill="black"/>
<path d="M96.2255 15.072V13.136H103.906V15.072H96.2255Z" fill="black"/>
<path d="M105.339 12V3.74397H107.243V4.95997H107.355C107.483 4.57597 107.665 4.24531 107.899 3.96797C108.145 3.69064 108.486 3.55197 108.923 3.55197C109.723 3.55197 110.214 4.02131 110.395 4.95997H110.491C110.555 4.76797 110.635 4.58664 110.731 4.41597C110.827 4.24531 110.945 4.09597 111.083 3.96797C111.222 3.83997 111.387 3.73864 111.579 3.66397C111.771 3.58931 111.995 3.55197 112.251 3.55197C113.403 3.55197 113.979 4.39997 113.979 6.09597V12H112.075V6.33597C112.075 5.95197 112.006 5.68531 111.867 5.53597C111.739 5.37597 111.569 5.29597 111.355 5.29597C111.153 5.29597 110.977 5.36531 110.827 5.50397C110.689 5.63197 110.619 5.83464 110.619 6.11197V12H108.699V6.33597C108.699 5.95197 108.635 5.68531 108.507 5.53597C108.39 5.37597 108.225 5.29597 108.011 5.29597C107.798 5.29597 107.617 5.36531 107.467 5.50397C107.318 5.63197 107.243 5.83464 107.243 6.11197V12H105.339Z" fill="black"/>
<path d="M122.245 12C121.754 12 121.36 11.8773 121.061 11.632C120.762 11.376 120.586 11.0133 120.533 10.544H120.453C120.304 11.088 120.005 11.4986 119.557 11.776C119.12 12.0533 118.581 12.192 117.941 12.192C117.141 12.192 116.496 11.9786 116.005 11.552C115.525 11.1146 115.285 10.5066 115.285 9.72797C115.285 8.86397 115.6 8.22397 116.229 7.80797C116.858 7.39197 117.781 7.18397 118.997 7.18397H120.325V6.76797C120.325 6.27731 120.208 5.90931 119.973 5.66397C119.749 5.40797 119.365 5.27997 118.821 5.27997C118.32 5.27997 117.914 5.37597 117.605 5.56797C117.296 5.75997 117.029 6.01064 116.805 6.31997L115.509 5.16797C115.786 4.69864 116.218 4.31464 116.805 4.01597C117.402 3.70664 118.165 3.55197 119.093 3.55197C120.224 3.55197 121.104 3.81331 121.733 4.33597C122.373 4.84797 122.693 5.62664 122.693 6.67197V10.288H123.605V12H122.245ZM118.837 10.64C119.253 10.64 119.605 10.5386 119.893 10.336C120.181 10.1333 120.325 9.83997 120.325 9.45597V8.46397H119.061C118.09 8.46397 117.605 8.78931 117.605 9.43997V9.75997C117.605 10.048 117.717 10.2666 117.941 10.416C118.165 10.5653 118.464 10.64 118.837 10.64Z" fill="black"/>
<path d="M130.927 3.74397H133.343L129.455 13.328C129.209 13.936 128.884 14.4 128.479 14.72C128.073 15.04 127.519 15.2 126.815 15.2H125.183V13.36H127.167L127.679 11.952L124.351 3.74397H126.895L128.095 7.21597L128.847 9.61597H128.975L129.695 7.21597L130.927 3.74397Z" fill="black"/>
<path d="M134.585 0.159973H136.952V5.24797H137.064C137.267 4.75731 137.561 4.35197 137.945 4.03197C138.329 3.71197 138.851 3.55197 139.512 3.55197C139.971 3.55197 140.387 3.63731 140.76 3.80797C141.145 3.97864 141.47 4.23997 141.737 4.59197C142.014 4.94397 142.227 5.39197 142.376 5.93597C142.536 6.47997 142.617 7.12531 142.617 7.87197C142.617 8.61864 142.536 9.26397 142.376 9.80797C142.227 10.352 142.014 10.8 141.737 11.152C141.47 11.504 141.145 11.7653 140.76 11.936C140.387 12.1066 139.971 12.192 139.512 12.192C138.851 12.192 138.329 12.0373 137.945 11.728C137.561 11.408 137.267 10.9973 137.064 10.496H136.952V12H134.585V0.159973ZM138.489 10.352C139.022 10.352 139.433 10.192 139.721 9.87197C140.008 9.54131 140.152 9.08797 140.152 8.51197V7.23197C140.152 6.65597 140.008 6.20797 139.721 5.88797C139.433 5.55731 139.022 5.39197 138.489 5.39197C138.073 5.39197 137.71 5.49331 137.4 5.69597C137.102 5.89864 136.952 6.21864 136.952 6.65597V9.08797C136.952 9.52531 137.102 9.84531 137.4 10.048C137.71 10.2506 138.073 10.352 138.489 10.352Z" fill="black"/>
<path d="M148.258 12.192C146.872 12.192 145.821 11.808 145.106 11.04C144.392 10.272 144.034 9.22664 144.034 7.90397C144.034 7.23197 144.125 6.62931 144.306 6.09597C144.498 5.55197 144.765 5.09331 145.106 4.71997C145.458 4.33597 145.88 4.04797 146.37 3.85597C146.872 3.65331 147.432 3.55197 148.05 3.55197C148.669 3.55197 149.224 3.65331 149.714 3.85597C150.205 4.04797 150.621 4.32531 150.962 4.68797C151.304 5.05064 151.565 5.49331 151.746 6.01597C151.938 6.52797 152.034 7.10397 152.034 7.74397V8.44797H146.386V8.59197C146.386 9.12531 146.552 9.55731 146.882 9.88797C147.213 10.208 147.698 10.368 148.338 10.368C148.829 10.368 149.25 10.2773 149.602 10.096C149.954 9.90397 150.258 9.65331 150.514 9.34397L151.794 10.736C151.474 11.1306 151.026 11.472 150.45 11.76C149.874 12.048 149.144 12.192 148.258 12.192ZM148.066 5.24797C147.554 5.24797 147.144 5.40797 146.834 5.72797C146.536 6.03731 146.386 6.45864 146.386 6.99197V7.11997H149.714V6.99197C149.714 6.44797 149.565 6.02131 149.266 5.71197C148.978 5.40264 148.578 5.24797 148.066 5.24797Z" fill="black"/>
</svg>
