<svg width="24" height="21" viewBox="0 0 24 21" fill="none" xmlns="http://www.w3.org/2000/svg">
<path d="M0.719971 9.74105C0.719971 10.4341 1.28247 10.9966 1.97555 10.9966C2.67868 10.9966 3.23113 10.4341 3.23113 9.74105V9.08815C3.23113 7.45087 4.35613 6.39619 6.06372 6.39619H13.6072V8.49552C13.6072 9.0982 13.9889 9.47989 14.6017 9.47989C14.8729 9.47989 15.124 9.37945 15.3249 9.21873L19.2825 5.92409C19.7747 5.53235 19.7646 4.8694 19.2825 4.46762L15.3249 1.16293C15.124 0.99217 14.8729 0.891724 14.6017 0.891724C13.9889 0.891724 13.6072 1.27342 13.6072 1.8761V3.92521H6.26461C2.85948 3.92521 0.719971 5.82364 0.719971 8.84708V9.74105ZM10.393 12.4933C10.393 11.8906 10.0113 11.4989 9.40859 11.4989C9.13738 11.4989 8.87622 11.6094 8.67533 11.7701L4.72778 15.0647C4.2356 15.4565 4.2356 16.1094 4.72778 16.5212L8.67533 19.8259C8.87622 19.9966 9.13738 20.0971 9.40859 20.0971C10.0113 20.0971 10.393 19.7154 10.393 19.1127V17.0536H17.7456C21.1508 17.0536 23.2802 15.1451 23.2802 12.1317V11.2377C23.2802 10.5346 22.7278 9.97208 22.0247 9.97208C21.3316 9.97208 20.7691 10.5346 20.7691 11.2377V11.8906C20.7691 13.5178 19.6541 14.5826 17.9365 14.5826H10.393V12.4933Z" fill="#F1F1F1"/>
</svg>
