<svg width="45" height="24" viewBox="0 0 45 24" fill="none" xmlns="http://www.w3.org/2000/svg">
<path d="M42.6923 21.9231C42.6923 22.5603 43.2089 23.0769 43.8462 23.0769C44.4834 23.0769 45 22.5603 45 21.9231V1.15385C45 0.516594 44.4834 0 43.8462 0C43.2089 0 42.6923 0.516595 42.6923 1.15385V21.9231Z" fill="black"/>
<path d="M25.3846 21.3043V15.5029H2.00669C0.898426 15.5029 0 14.6045 0 13.4963V10.5866C0 9.4783 0.898425 8.57987 2.00669 8.57987H25.3846V2.77851C25.3846 1.02916 27.467 0.117441 28.7524 1.30398L38.7872 10.5669C39.648 11.3615 39.648 12.7214 38.7872 13.5159L28.7524 22.7788C27.467 23.9654 25.3846 23.0536 25.3846 21.3043Z" fill="black"/>
</svg>
