<svg width="26" height="34" viewBox="0 0 26 34" fill="none" xmlns="http://www.w3.org/2000/svg">
<path d="M0.622832 31.0365H0.62286V31.0313V3.3884C0.62286 2.51517 0.847355 1.93965 1.20716 1.57985C1.56697 1.22004 2.14249 0.995544 3.01572 0.995544H7.73401C8.61462 1.00522 9.18998 1.22258 9.54804 1.57507C9.90402 1.92552 10.1296 2.49289 10.1296 3.3884V31.0313C10.1296 31.9045 9.90506 32.48 9.54525 32.8398C9.18545 33.1996 8.60993 33.4241 7.7367 33.4241H3.01572C2.13068 33.4241 1.551 33.1987 1.19209 32.8398C0.834114 32.4818 0.61365 31.9088 0.622832 31.0365ZM22.9845 33.4241H18.2836C17.399 33.4241 16.8248 33.199 16.4684 32.8407C16.1115 32.482 15.8907 31.9071 15.8907 31.0313V3.3884C15.8907 2.51255 16.1115 1.93764 16.4684 1.57893C16.8248 1.22068 17.399 0.995544 18.2836 0.995544H22.9845C23.863 0.995544 24.4372 1.21269 24.7949 1.56662C25.1515 1.91959 25.3773 2.49245 25.3773 3.3884V31.0313C25.3773 31.9045 25.1528 32.48 24.793 32.8398C24.4332 33.1996 23.8577 33.4241 22.9845 33.4241Z" stroke="white"/>
</svg>
