<svg width="56" height="72" viewBox="0 0 56 72" fill="none" xmlns="http://www.w3.org/2000/svg">
<path d="M6.29075 72H16.5558C20.7056 72 22.8459 69.8798 22.8459 65.7692V6.23077C22.8459 2.03365 20.7056 0.0432692 16.5558 0H6.29075C2.14104 0 0.00065535 2.12019 0.00065535 6.23077V65.7692C-0.0430259 69.8798 2.09735 72 6.29075 72ZM39.4885 72H49.7099C53.8596 72 56 69.8798 56 65.7692V6.23077C56 2.03365 53.8596 0 49.7099 0H39.4885C35.2951 0 33.1984 2.12019 33.1984 6.23077V65.7692C33.1984 69.8798 35.2951 72 39.4885 72Z" fill="white"/>
</svg>
