<svg width="33" height="36" viewBox="0 0 33 36" fill="none" xmlns="http://www.w3.org/2000/svg">
<path d="M5.6106 34.5733L5.61338 34.5717L29.3378 20.8513L5.6106 34.5733ZM5.6106 34.5733C4.71399 35.0996 4.06372 35.3482 3.35254 35.3482C2.66218 35.3482 2.09904 35.0911 1.70317 34.6432C1.3029 34.1904 1.04004 33.5031 1.04004 32.5938V3.8661C1.04004 2.96787 1.30235 2.27967 1.7039 1.82336C2.10107 1.37204 2.66464 1.11163 3.35254 1.11163C4.06372 1.11163 4.71399 1.36032 5.6106 1.88659L5.61059 1.8866M5.6106 34.5733L5.61059 1.8866M5.61059 1.8866L5.61338 1.88821M5.61059 1.8866L5.61338 1.88821M5.61338 1.88821L29.3365 15.6079C30.1891 16.1136 30.7389 16.5246 31.078 16.9324C31.3983 17.3176 31.54 17.7111 31.54 18.2299C31.54 18.7496 31.3978 19.1484 31.0772 19.536M5.61338 1.88821L31.0772 19.536M31.0772 19.536C30.7388 19.9451 30.1896 20.356 29.3388 20.8507L31.0772 19.536Z" stroke="#F1F1F1"/>
</svg>
