<svg width="46" height="46" viewBox="0 0 46 46" fill="none" xmlns="http://www.w3.org/2000/svg">
<path fill-rule="evenodd" clip-rule="evenodd" d="M36.9545 0C31.9683 0 27.909 4.05927 27.909 9.0455C27.909 9.39498 27.954 9.73226 27.9998 10.0488L15.2481 16.4235C13.6274 14.8949 11.4442 13.9545 9.0455 13.9545C4.05927 13.9545 0 18.0138 0 23C0 27.9862 4.05927 32.0455 9.0455 32.0455C11.4442 32.0455 13.6274 31.1051 15.2481 29.5765L28.0006 35.9516C27.9556 36.2666 27.909 36.6054 27.909 36.9545C27.909 41.9407 31.9683 46 36.9545 46C41.9407 46 46 41.9407 46 36.9545C46 31.9683 41.9407 27.909 36.9545 27.909C33.7851 27.909 31.0185 29.5632 29.4062 32.0309L17.5311 26.0933C17.8862 25.1289 18.091 24.0903 18.091 23C18.091 21.9097 17.8862 20.8711 17.5311 19.9067L29.4064 13.969C31.0205 16.4366 33.7848 18.091 36.9545 18.091C41.9407 18.091 46 14.0317 46 9.0455C46 4.05927 41.9407 0 36.9545 0ZM32.0455 9.0455C32.0455 6.34048 34.2495 4.13651 36.9545 4.13651C39.6595 4.13651 41.8635 6.34048 41.8635 9.0455C41.8635 11.7505 39.6595 13.9545 36.9545 13.9545C34.2495 13.9545 32.0455 11.7505 32.0455 9.0455ZM4.13651 23C4.13651 20.295 6.34048 18.091 9.0455 18.091C11.7505 18.091 13.9545 20.295 13.9545 23C13.9545 25.705 11.7505 27.909 9.0455 27.909C6.34048 27.909 4.13651 25.705 4.13651 23ZM32.0455 36.9545C32.0455 34.2495 34.2495 32.0455 36.9545 32.0455C39.6595 32.0455 41.8635 34.2495 41.8635 36.9545C41.8635 39.6595 39.6595 41.8635 36.9545 41.8635C34.2495 41.8635 32.0455 39.6595 32.0455 36.9545Z" fill="black"/>
</svg>
